<svg width="177" height="145" viewBox="0 0 177 145" fill="none" xmlns="http://www.w3.org/2000/svg">
<path d="M35.0096 126.25C31.3013 126.25 27.8013 125.542 24.5096 124.125C21.2596 122.75 18.4054 120.833 15.9471 118.375C13.5304 115.958 11.6138 113.104 10.1971 109.812C8.82211 106.562 8.13461 103.083 8.13461 99.375C8.13461 96.0417 8.71794 92.8333 9.88461 89.75C11.0513 86.7083 12.7596 83.9583 15.0096 81.5C12.7596 79.0417 11.0513 76.2708 9.88461 73.1875C8.71794 70.1042 8.13461 66.8958 8.13461 63.5625C8.13461 59.8542 8.82211 56.3542 10.1971 53.0625C11.6138 49.8125 13.5304 46.9583 15.9471 44.5C18.4054 42.0833 21.2596 40.1667 24.5096 38.75C27.8013 37.375 31.3013 36.6875 35.0096 36.6875L99.0096 36.6875L99.0096 54.625L35.0096 54.625C33.7596 54.625 32.5721 54.8542 31.4471 55.3125C30.3638 55.7708 29.4054 56.3958 28.5721 57.1875C27.7804 58.0208 27.1554 58.9792 26.6971 60.0625C26.2388 61.1458 26.0096 62.3125 26.0096 63.5625C26.0096 64.8125 26.2388 65.9792 26.6971 67.0625C27.1554 68.1458 27.7804 69.0833 28.5721 69.875C29.4054 70.7083 30.3638 71.3542 31.4471 71.8125C32.5721 72.2708 33.7596 72.5 35.0096 72.5L99.0096 72.5L99.0096 90.4375L35.0096 90.4375C33.7596 90.4375 32.5721 90.6667 31.4471 91.125C30.3638 91.5833 29.4054 92.2083 28.5721 93C27.7804 93.8333 27.1554 94.7917 26.6971 95.875C26.2388 96.9583 26.0096 98.125 26.0096 99.375C26.0096 100.625 26.2388 101.792 26.6971 102.875C27.1554 103.958 27.7804 104.896 28.5721 105.687C29.4054 106.521 30.3638 107.167 31.4471 107.625C32.5721 108.125 33.7596 108.375 35.0096 108.375L99.0096 108.375L99.0096 126.25L35.0096 126.25Z" fill="#F28C33"/>
<path d="M170.52 100.375C170.52 104.083 169.811 107.583 168.395 110.875C167.02 114.125 165.103 116.979 162.645 119.438C160.228 121.854 157.374 123.771 154.082 125.188C150.832 126.562 147.353 127.25 143.645 127.25C140.311 127.25 137.103 126.667 134.02 125.5C130.978 124.333 128.228 122.625 125.77 120.375C123.311 122.625 120.541 124.333 117.457 125.5C114.374 126.667 111.166 127.25 107.832 127.25C104.124 127.25 100.624 126.562 97.3322 125.188C94.0822 123.771 91.228 121.854 88.7697 119.438C86.353 116.979 84.4364 114.125 83.0197 110.875C81.6447 107.583 80.9572 104.083 80.9572 100.375V36.375H98.8947V100.375C98.8947 101.625 99.1239 102.812 99.5822 103.938C100.041 105.021 100.666 105.979 101.457 106.812C102.291 107.604 103.249 108.229 104.332 108.688C105.416 109.146 106.582 109.375 107.832 109.375C109.082 109.375 110.249 109.146 111.332 108.688C112.416 108.229 113.353 107.604 114.145 106.812C114.978 105.979 115.624 105.021 116.082 103.938C116.541 102.812 116.77 101.625 116.77 100.375V36.375H134.707V100.375C134.707 101.625 134.936 102.812 135.395 103.938C135.853 105.021 136.478 105.979 137.27 106.812C138.103 107.604 139.061 108.229 140.145 108.688C141.228 109.146 142.395 109.375 143.645 109.375C144.895 109.375 146.061 109.146 147.145 108.688C148.228 108.229 149.166 107.604 149.957 106.812C150.791 105.979 151.436 105.021 151.895 103.938C152.395 102.812 152.645 101.625 152.645 100.375V36.375H170.52V100.375Z" fill="#283FC3"/>
</svg>
